<svg width="1440" height="1024" viewBox="0 0 1440 1024" fill="none" xmlns="http://www.w3.org/2000/svg">
<rect width="1440" height="1024" fill="#E5E5E5"/>
<g id="Desktop - 1">
<rect width="1440" height="1024" fill="white"/>
<path id="Vector" d="M269.167 737.195C322.849 737.195 366.368 693.677 366.368 639.995C366.368 586.312 322.849 542.794 269.167 542.794C215.485 542.794 171.967 586.312 171.967 639.995C171.967 693.677 215.485 737.195 269.167 737.195Z" fill="#E6E6E6"/>
<path id="Vector_2" d="M242.906 781.933L266.815 796.749V696.598L240.015 679.99C237.8 678.617 236.181 676.462 235.479 673.952V673.952C238.039 673.463 240.69 673.953 242.906 675.326L266.816 690.142V651.306C266.816 643.794 267.737 636.309 269.559 629.02C271.381 636.309 272.303 643.794 272.303 651.306V714.694L307.577 692.836C310.393 691.09 313.652 690.191 316.965 690.246C315.539 693.237 313.283 695.755 310.467 697.5L272.303 721.149V960H266.815V803.205L240.015 786.597C237.8 785.224 236.181 783.069 235.479 780.559V780.559C238.039 780.07 240.69 780.56 242.906 781.933V781.933Z" fill="#CCCCCC"/>
<path id="Vector_3" d="M125.2 745.448C178.883 745.448 222.401 701.93 222.401 648.247C222.401 594.565 178.883 551.047 125.2 551.047C71.5181 551.047 28 594.565 28 648.247C28 701.93 71.5181 745.448 125.2 745.448Z" fill="#E6E6E6"/>
<path id="Vector_4" d="M151.462 790.186L127.552 805.002V704.851L154.352 688.243C156.568 686.87 158.187 684.715 158.889 682.205C156.328 681.716 153.678 682.206 151.462 683.579L127.552 698.395V659.559C127.552 652.046 126.631 644.562 124.808 637.273C122.986 644.562 122.065 652.046 122.065 659.559V722.947L86.791 701.089C83.9744 699.343 80.7156 698.444 77.4025 698.499C78.8285 701.49 81.0842 704.008 83.9008 705.753L122.065 729.402V958.523H127.552V811.457L154.352 794.85C156.568 793.477 158.187 791.322 158.889 788.812C156.328 788.323 153.678 788.813 151.462 790.186Z" fill="#CCCCCC"/>
<path id="Vector_5" d="M195.808 612.709C288.236 612.709 363.163 537.782 363.163 445.355C363.163 352.927 288.236 278 195.808 278C103.381 278 28.4537 352.927 28.4537 445.355C28.4537 537.782 103.381 612.709 195.808 612.709Z" fill="#E6E6E6"/>
<path id="Vector_6" d="M241.024 689.737L199.857 715.247V542.811L246 514.217C249.815 511.853 252.603 508.143 253.811 503.82L253.811 503.82H253.811C249.403 502.978 244.839 503.823 241.024 506.187L199.857 531.696V464.831C199.857 451.895 198.271 439.009 195.134 426.46C191.996 439.009 190.41 451.895 190.41 464.831V573.968L129.677 536.334C124.828 533.329 119.217 531.781 113.512 531.874C115.968 537.024 119.851 541.359 124.701 544.364L190.41 585.082V958.89H199.857V726.361L246 697.767C249.815 695.403 252.603 691.693 253.811 687.37L253.811 687.37H253.811C249.403 686.528 244.839 687.373 241.024 689.737V689.737Z" fill="#CCCCCC"/>
<path id="Vector_7" d="M874.578 958.583H61.5778V960.583H874.578V958.583Z" fill="#3F3D56"/>
<path id="Vector_8" d="M670.924 438.995H668.654V325.035C668.654 314.694 664.546 304.777 657.234 297.465C649.922 290.153 640.005 286.045 629.664 286.045H375.874C365.533 286.045 355.616 290.153 348.304 297.465C340.992 304.777 336.884 314.694 336.884 325.035V374.965H336.024C335.417 374.965 334.834 375.206 334.405 375.635C333.975 376.065 333.734 376.647 333.734 377.255V399.585C333.734 400.192 333.975 400.775 334.405 401.204C334.834 401.634 335.417 401.875 336.024 401.875H336.884V424.225H335.824C335.523 424.225 335.225 424.284 334.948 424.399C334.67 424.514 334.417 424.683 334.205 424.896C333.992 425.108 333.823 425.361 333.708 425.639C333.593 425.916 333.534 426.214 333.534 426.515V468.775C333.534 469.382 333.775 469.964 334.205 470.394C334.634 470.823 335.217 471.065 335.824 471.065H336.884V487.455H335.924C335.623 487.455 335.325 487.514 335.048 487.629C334.77 487.744 334.517 487.913 334.305 488.125C334.092 488.338 333.923 488.59 333.808 488.868C333.693 489.146 333.634 489.444 333.634 489.744V532.405C333.634 533.012 333.875 533.595 334.305 534.024C334.734 534.453 335.317 534.695 335.924 534.695H336.884V921.325C336.884 931.665 340.992 941.583 348.304 948.895C355.616 956.207 365.533 960.315 375.874 960.315H629.664C640.005 960.315 649.922 956.207 657.234 948.895C664.546 941.583 668.654 931.665 668.654 921.325V520.725H670.924C671.531 520.725 672.114 520.484 672.543 520.054C672.973 519.625 673.214 519.042 673.214 518.435V441.285C673.214 440.677 672.973 440.095 672.543 439.665C672.114 439.236 671.531 438.995 670.924 438.995Z" fill="#3F3D56"/>
<path id="Vector_9" d="M513.224 316.084H474.634C473.475 316.083 472.365 315.623 471.545 314.803C470.726 313.984 470.265 312.874 470.264 311.715V310.044C470.265 308.886 470.726 307.775 471.545 306.956C472.365 306.137 473.475 305.676 474.634 305.675H513.224C514.382 305.676 515.493 306.137 516.312 306.956C517.131 307.775 517.592 308.886 517.594 310.044V311.715C517.592 312.874 517.132 313.984 516.312 314.803C515.493 315.623 514.382 316.083 513.224 316.084V316.084Z" fill="white"/>
<path id="Vector_10" d="M529.434 316.225C532.383 316.225 534.774 313.834 534.774 310.885C534.774 307.936 532.383 305.545 529.434 305.545C526.485 305.545 524.094 307.936 524.094 310.885C524.094 313.834 526.485 316.225 529.434 316.225Z" fill="white"/>
<path id="Vector_11" d="M621.814 303.605H583.814V308.175C583.814 313.93 581.528 319.45 577.458 323.519C573.389 327.589 567.869 329.875 562.114 329.875H441.054C438.206 329.876 435.385 329.316 432.753 328.228C430.121 327.139 427.729 325.542 425.714 323.529C423.699 321.516 422.1 319.126 421.009 316.494C419.918 313.863 419.355 311.043 419.354 308.195V303.605H383.724C376.735 303.605 370.033 306.381 365.092 311.323C360.15 316.264 357.374 322.966 357.374 329.955V329.955V916.395C357.374 923.383 360.15 930.086 365.092 935.027C370.033 939.969 376.735 942.745 383.724 942.745H621.814C628.8 942.745 635.499 939.97 640.439 935.03C645.379 930.09 648.154 923.391 648.154 916.405V329.955C648.155 326.496 647.475 323.07 646.153 319.874C644.83 316.678 642.891 313.774 640.446 311.327C638.001 308.88 635.098 306.939 631.903 305.614C628.708 304.289 625.283 303.606 621.824 303.605H621.814Z" fill="white"/>
<g id="button">
<path id="Vector_12" d="M553.764 871.583H451.764C444.47 871.583 437.476 868.686 432.318 863.529C427.161 858.372 424.264 851.377 424.264 844.083C424.264 836.79 427.161 829.795 432.318 824.638C437.476 819.481 444.47 816.583 451.764 816.583H553.764C561.058 816.583 568.053 819.481 573.21 824.638C578.367 829.795 581.264 836.79 581.264 844.083C581.264 851.377 578.367 858.372 573.21 863.529C568.053 868.686 561.058 871.583 553.764 871.583V871.583Z" fill="#4F4FCB"/>
</g>
<path id="Vector_13" d="M593.764 645.695H411.764C409.244 645.695 406.828 644.694 405.046 642.912C403.265 641.131 402.264 638.714 402.264 636.195C402.264 633.675 403.265 631.259 405.046 629.477C406.828 627.696 409.244 626.695 411.764 626.695H593.764C596.284 626.695 598.7 627.696 600.482 629.477C602.264 631.259 603.264 633.675 603.264 636.195C603.264 638.714 602.264 641.131 600.482 642.912C598.7 644.694 596.284 645.695 593.764 645.695V645.695Z" fill="#E6E6E6"/>
<path id="Vector_14" d="M593.764 673.695H411.764C409.244 673.695 406.828 672.694 405.046 670.912C403.265 669.131 402.264 666.714 402.264 664.195C402.264 661.675 403.265 659.259 405.046 657.477C406.828 655.696 409.244 654.695 411.764 654.695H593.764C596.284 654.695 598.7 655.696 600.482 657.477C602.264 659.259 603.264 661.675 603.264 664.195C603.264 666.714 602.264 669.131 600.482 670.912C598.7 672.694 596.284 673.695 593.764 673.695V673.695Z" fill="#E6E6E6"/>
<path id="Vector_15" d="M593.764 701.695H411.764C409.244 701.695 406.828 700.694 405.046 698.912C403.265 697.131 402.264 694.714 402.264 692.195C402.264 689.675 403.265 687.259 405.046 685.477C406.828 683.696 409.244 682.695 411.764 682.695H593.764C596.284 682.695 598.7 683.696 600.482 685.477C602.264 687.259 603.264 689.675 603.264 692.195C603.264 694.714 602.264 697.131 600.482 698.912C598.7 700.694 596.284 701.695 593.764 701.695V701.695Z" fill="#E6E6E6"/>
<path id="Vector_16" d="M593.764 729.695H411.764C409.244 729.695 406.828 728.694 405.046 726.912C403.265 725.131 402.264 722.714 402.264 720.195C402.264 717.675 403.265 715.259 405.046 713.477C406.828 711.696 409.244 710.695 411.764 710.695H593.764C596.284 710.695 598.7 711.696 600.482 713.477C602.264 715.259 603.264 717.675 603.264 720.195C603.264 722.714 602.264 725.131 600.482 726.912C598.7 728.694 596.284 729.695 593.764 729.695V729.695Z" fill="#E6E6E6"/>
<path id="Vector_17" d="M469.764 757.695H411.764C409.244 757.695 406.828 756.694 405.046 754.912C403.265 753.131 402.264 750.714 402.264 748.195C402.264 745.675 403.265 743.259 405.046 741.477C406.828 739.696 409.244 738.695 411.764 738.695H469.764C472.284 738.695 474.7 739.696 476.482 741.477C478.263 743.259 479.264 745.675 479.264 748.195C479.264 750.714 478.263 753.131 476.482 754.912C474.7 756.694 472.284 757.695 469.764 757.695H469.764Z" fill="#E6E6E6"/>
<g id="box">
<path id="Vector_18" d="M622.25 567.844H383.278C381.166 567.841 379.14 567.001 377.646 565.507C376.153 564.014 375.312 561.988 375.31 559.876V382.514C375.312 380.401 376.153 378.376 377.646 376.882C379.14 375.389 381.166 374.548 383.278 374.546H622.25C624.362 374.548 626.388 375.389 627.881 376.882C629.375 378.376 630.215 380.401 630.218 382.514V559.876C630.215 561.988 629.375 564.013 627.881 565.507C626.388 567.001 624.362 567.841 622.25 567.844V567.844Z" fill="#E6E6E6"/>
</g>
<g id="Group" opacity="0.1">
<path id="Vector_19" opacity="0.1" d="M664.578 517.215C664.578 515.842 664.578 514.461 664.578 513.075C664.523 514.144 664.523 515.216 664.578 516.285C664.568 516.595 664.578 516.905 664.578 517.215Z" fill="black"/>
</g>
<g id="face">
<path id="Vector_20" d="M704.442 595.849C718.933 595.849 730.681 584.102 730.681 569.61C730.681 555.119 718.933 543.372 704.442 543.372C689.95 543.372 678.203 555.119 678.203 569.61C678.203 584.102 689.95 595.849 704.442 595.849Z" fill="#FFB8B8"/>
</g>
<g id="rfinger">
<path id="Vector_21" d="M772.685 782.376C773.709 781.439 774.515 780.288 775.046 779.005C775.577 777.722 775.82 776.338 775.759 774.951C775.697 773.564 775.332 772.208 774.69 770.977C774.047 769.746 773.143 768.671 772.04 767.827L768.462 736.047L748.537 741.486L758.238 770.09C756.944 772.036 756.409 774.39 756.735 776.705C757.06 779.02 758.223 781.135 760.004 782.65C761.785 784.164 764.059 784.973 766.396 784.922C768.733 784.872 770.971 783.966 772.685 782.376V782.376Z" fill="#FFB8B8"/>
</g>
<g id="legR">
<path id="Vector_22" d="M787.242 943.281L798.24 936.168L776.036 890.365L759.805 900.864L787.242 943.281Z" fill="#FFB8B8"/>
</g>
<g id="shoseR">
<path id="Vector_23" d="M826.054 932.661L791.491 955.017L782.854 941.664L804.562 927.622C806.25 926.53 808.136 925.782 810.114 925.419C812.091 925.056 814.121 925.086 816.087 925.508C818.052 925.929 819.916 926.734 821.571 927.876C823.225 929.017 824.639 930.474 825.731 932.162L826.054 932.661V932.661Z" fill="#2F2E41"/>
</g>
<g id="leg">
<path id="Vector_24" d="M689.851 947.936H702.948L709.181 897.418H689.851V947.936Z" fill="#FFB8B8"/>
</g>
<g id="shosel">
<path id="Vector_25" d="M728.207 960.097H687.044V944.194H712.898C716.958 944.194 720.852 945.807 723.723 948.678C726.594 951.549 728.207 955.443 728.207 959.503V960.097V960.097Z" fill="#2F2E41"/>
</g>
<g id="rHand">
<path id="Vector_26" d="M742.416 621.71C740.674 627.381 746.848 633.555 748.841 639.129C750.834 644.703 753.516 650.067 754.593 655.9C755.33 659.911 772.038 748.5 771.235 753.894C766.092 752.353 760.553 752.861 755.776 755.312C752.439 749.45 750.433 742.924 749.902 736.199C749.701 732.212 749.739 728.216 750.015 724.233C750.534 712.963 745.648 701.677 745.486 690.399C745.537 686.49 745.228 682.584 744.563 678.732C744.028 676.083 744.077 671.124 743.501 668.483C742.586 664.286 746.523 662.35 746.305 658.047L745.106 634.552C744.855 630.436 740.723 625.388 742.416 621.71Z" fill="#2F2E41"/>
</g>
<g id="tha">
<path id="Vector_27" d="M683.177 720.29C678.966 726.859 670.102 728.28 663.901 732.986C654.426 740.219 678.598 902.716 686.578 931.583C707.634 928.425 708.371 928.436 710.792 927.372C713.213 926.309 715.403 843.772 720.52 826.758C730.095 835.782 760.231 913.338 766.59 930.531C791.857 924.214 766.59 930.531 799.227 922.108C798.953 916.15 750.998 721.985 749.25 706.688C727.31 711.057 705.054 715.931 683.177 720.29Z" fill="#2F2E41"/>
</g>
<g id="body">
<path id="Vector_28" d="M680.338 598.271C677.737 605.976 681.278 635.953 681.537 642.694C681.91 648.813 681.91 654.95 681.537 661.069C680.638 671.667 677.486 682.337 679.601 692.756C680.986 699.651 683.449 706.06 684.025 713.076C684.413 717.937 684.292 722.88 685.831 727.49C691.503 725.059 741.784 716.704 745.478 711.845C742.951 699.635 745.397 687.028 743.72 674.673C742.748 667.551 740.342 660.697 739.207 653.607C737.806 644.857 738.397 635.783 735.845 627.284C734.43 622.981 732.633 618.813 730.473 614.831C728.276 610.302 725.521 606.582 724.578 606.583C722.188 606.713 680.491 597.584 680.338 598.271Z" fill="#4F4FCB"/>
</g>
<g id="cotel">
<path id="Vector_29" d="M670.713 781.717C670.713 781.717 679.431 764.322 679.868 754.372C680.022 750.799 689.809 736.58 694.217 733.356C704.669 725.699 712.374 674.381 708.841 661.928C702.732 640.401 692.443 620.333 681.999 600.547C681.688 599.81 681.184 599.169 680.541 598.692C678.418 597.371 676.117 599.972 674.667 602.006C669.749 608.901 661.647 612.587 654.225 616.662C646.804 620.738 639.212 626.166 636.968 634.325C635.461 639.802 636.636 645.611 637.778 651.161C638.921 656.711 642.915 661.118 645.937 665.793C649.44 670.952 658.54 693.833 658.471 696.548C658.649 713.336 658.819 730.18 656.786 746.854C655.643 756.276 654.639 775.211 654.639 775.211L670.713 781.717Z" fill="#2F2E41"/>
</g>
<g id="coteR">
<path id="Vector_30" d="M749.886 763.73C733.836 727.198 734.735 685.627 724.535 647.061C721.505 635.613 717.454 624.108 718.183 612.287C718.312 610.173 718.758 607.799 720.524 606.616C722.096 605.563 724.235 605.846 725.961 606.616C727.686 607.385 729.161 608.641 730.822 609.5C733.504 610.869 736.623 611.258 739.199 612.806C743.024 615.107 744.976 619.482 746.686 623.598C750.34 632.388 753.978 641.422 754.269 650.95C754.885 669.455 746.678 687.239 750.955 705.234C751.878 708.782 752.982 712.281 754.261 715.718C758.55 728.13 762.067 740.796 764.794 753.643C765.272 755.839 750.558 765.27 749.886 763.73Z" fill="#2F2E41"/>
</g>
<g id="lFiger">
<path id="Vector_31" d="M698.933 755.086C699.148 753.714 699.059 752.312 698.673 750.979C698.287 749.645 697.614 748.412 696.7 747.367C695.786 746.321 694.654 745.489 693.383 744.929C692.113 744.368 690.735 744.093 689.347 744.123L666.713 721.529L654.543 738.216L679.977 754.506C680.182 756.835 681.233 759.008 682.932 760.613C684.632 762.218 686.861 763.144 689.198 763.216C691.534 763.287 693.816 762.499 695.61 761.001C697.404 759.502 698.587 757.398 698.933 755.086V755.086Z" fill="#FFB8B8"/>
</g>
<g id="handl">
<path id="Vector_32" d="M626.816 703.775C627.189 707.17 655.704 742.972 671.199 754.656C670.3 750.046 682.445 735.009 686.374 732.659C676.555 723.396 656.038 701.911 655.36 700.737C653.14 696.451 655.36 691.33 657.296 686.899C663.397 672.809 666.273 656.824 662.36 641.973C660.885 636.399 658.309 630.816 653.618 627.389C651.568 625.899 648.797 624.878 646.52 626.012C645.567 626.561 644.739 627.303 644.09 628.191C636.822 637.031 626.541 701.255 626.816 703.775Z" fill="#2F2E41"/>
</g>
<g id="hair">
<path id="Vector_33" d="M693.258 592.57C694.79 586.07 687.046 572.084 688.578 565.583C689.615 561.181 699.966 564.174 702.382 560.35C704.798 556.527 708.844 553.43 713.366 553.379C718.564 553.32 723.679 557.176 728.603 555.51C733.582 553.825 735.173 547.007 732.972 542.234C730.771 537.461 726.029 534.419 721.344 532.036C713.367 527.978 704.078 525.014 695.54 527.699C690.378 529.322 686.063 532.839 681.886 536.279C678.08 539.415 674.209 542.622 671.547 546.774C666.334 554.909 666.648 565.87 671.104 574.443C675.559 583.017 683.677 589.309 692.622 592.961" fill="#2F2E41"/>
</g>
</g>
</svg>
